<?xml version="1.0" encoding="utf-8"?>
<!-- Generator: Adobe Illustrator 22.0.0, SVG Export Plug-In . SVG Version: 6.00 Build 0)  -->
<svg version="1.1" id="Capa_1" xmlns="http://www.w3.org/2000/svg" xmlns:xlink="http://www.w3.org/1999/xlink" x="0px" y="0px"
	 viewBox="0 0 400 400" style="enable-background:new 0 0 400 400;" xml:space="preserve">
<style type="text/css">
	.st0{fill:#5875E1;}
	.st1{fill:#999999;}
</style>
<g>
	<g>
		<g>
			<path class="st0" d="M63.9,293c-2.1,0-4.1-1.1-5.1-3.1L50,272.2c-1.4-2.8-0.3-6.2,2.5-7.6c2.8-1.4,6.2-0.3,7.6,2.5l8.8,17.7
				c1.4,2.8,0.3,6.2-2.5,7.6C65.6,292.8,64.7,293,63.9,293z"/>
		</g>
		<g>
			<path class="st1" d="M333.5,299.2c-0.9,0-1.7-0.2-2.5-0.6c-2.8-1.4-3.9-4.8-2.5-7.6l11.9-23.8c1.4-2.8,4.8-3.9,7.6-2.5
				c2.8,1.4,3.9,4.8,2.5,7.6l-11.9,23.8C337.5,298,335.5,299.2,333.5,299.2z"/>
		</g>
		<g>
			<path class="st0" d="M292.9,359.2c-5,0-9.9-1.5-14-4.4l-59.5-41.7c-2.6-1.8-3.2-5.3-1.4-7.9c1.8-2.5,5.3-3.2,7.9-1.4l59.5,41.7
				c2.9,2,6.4,2.8,9.9,2.2c3.5-0.6,6.5-2.6,8.6-5.5c2-2.9,2.8-6.4,2.2-9.9c-0.6-3.5-2.5-6.5-5.5-8.6l-59.5-41.7
				c-2.6-1.8-3.2-5.3-1.4-7.9c1.8-2.5,5.3-3.2,7.9-1.4l59.5,41.7c5.4,3.8,9,9.4,10.1,15.9s-0.3,13-4.1,18.4
				c-3.8,5.4-9.4,9-15.8,10.1C295.8,359.1,294.4,359.2,292.9,359.2z"/>
		</g>
		<g>
			<path class="st0" d="M252.7,377.2c-5,0-9.9-1.5-14-4.4l-41-28.7c-2.6-1.8-3.2-5.3-1.4-7.9c1.8-2.5,5.3-3.2,7.9-1.4l41,28.7
				c2.9,2,6.4,2.8,9.9,2.2c3.5-0.6,6.5-2.6,8.6-5.5c2-2.9,2.8-6.4,2.2-9.9c-0.6-3.5-2.5-6.5-5.5-8.6l-41-28.7
				c-2.6-1.8-3.2-5.3-1.4-7.9c1.8-2.5,5.3-3.2,7.9-1.4l41,28.7c5.4,3.8,9,9.4,10.1,15.8c1.1,6.5-0.3,13-4.1,18.4
				c-3.8,5.4-9.4,9-15.8,10.1C255.6,377.1,254.1,377.2,252.7,377.2z"/>
		</g>
		<g>
			<path class="st0" d="M212.9,395.5c-5,0-9.9-1.5-14-4.4l-19.5-13.7c-2.6-1.8-3.2-5.3-1.4-7.9c1.8-2.5,5.3-3.2,7.9-1.4l19.5,13.7
				c2.9,2,6.4,2.8,9.9,2.2c3.5-0.6,6.5-2.6,8.6-5.5c2-2.9,2.8-6.4,2.2-9.9c-0.6-3.5-2.5-6.5-5.5-8.6l-22.9-16
				c-2.6-1.8-3.2-5.3-1.4-7.9c1.8-2.5,5.3-3.2,7.9-1.4l22.9,16c5.4,3.8,9,9.4,10.1,15.9c1.1,6.5-0.3,13-4.1,18.4
				c-3.8,5.4-9.4,9-15.8,10.1C215.8,395.4,214.3,395.5,212.9,395.5z"/>
		</g>
		<g>
			<path class="st0" d="M332.6,340.8c-5,0-9.9-1.5-14-4.4l-77.5-54.2c-2.6-1.8-3.2-5.3-1.4-7.9c1.8-2.5,5.3-3.2,7.9-1.4l77.5,54.2
				c2.9,2,6.4,2.8,9.9,2.2c3.5-0.6,6.5-2.6,8.6-5.5c4.2-6,2.7-14.3-3.3-18.5l-86.5-62.2c-2.5-1.8-3.1-5.3-1.3-7.9
				c1.8-2.5,5.3-3.1,7.9-1.3l86.5,62.2c11,7.7,13.7,23.1,6,34.2c-3.8,5.4-9.4,9-15.8,10.1C335.4,340.6,334,340.8,332.6,340.8z"/>
		</g>
		<g>
			<path class="st1" d="M129.7,373.8c-5,0-9.9-1.5-14-4.4c-5.4-3.8-9-9.4-10.1-15.8c-1.1-6.5,0.3-13,4.1-18.3l22.8-32.5
				c3.8-5.4,9.4-9,15.8-10.1c6.5-1.1,13,0.3,18.3,4.1c5.4,3.8,9,9.4,10.1,15.8c1.1,6.5-0.3,13-4.1,18.3l-22.8,32.5
				c-3.8,5.4-9.4,9-15.8,10.1C132.6,373.7,131.2,373.8,129.7,373.8z M152.6,303.4c-0.8,0-1.6,0.1-2.3,0.2c-3.5,0.6-6.5,2.6-8.6,5.5
				l0,0l-22.8,32.5c-2,2.9-2.8,6.4-2.2,9.9c0.6,3.5,2.6,6.5,5.5,8.6c2.9,2,6.4,2.8,9.9,2.2c3.5-0.6,6.5-2.6,8.6-5.5l22.8-32.5
				c2-2.9,2.8-6.4,2.2-9.9c-0.6-3.5-2.6-6.5-5.5-8.6C157.9,304.3,155.3,303.4,152.6,303.4z M137.1,305.9L137.1,305.9L137.1,305.9z"
				/>
		</g>
		<g>
			<path class="st1" d="M160.7,395.5c-4.9,0-9.8-1.4-14.1-4.4c-5.4-3.8-9-9.4-10.1-15.8c-1.1-6.5,0.3-13,4.1-18.4l10.2-14.6
				c3.8-5.4,9.4-9,15.8-10.1c6.5-1.1,13,0.3,18.3,4.1c5.4,3.8,9,9.4,10.1,15.8c1.1,6.5-0.3,13-4.1,18.4L180.9,385
				C176.1,391.8,168.5,395.5,160.7,395.5z M171,343.1c-0.8,0-1.6,0.1-2.3,0.2c-3.5,0.6-6.5,2.5-8.6,5.5l0,0l-10.2,14.6
				c-2,2.9-2.8,6.4-2.2,9.9c0.6,3.5,2.6,6.5,5.5,8.6c6,4.2,14.3,2.7,18.5-3.3l10.2-14.6c2-2.9,2.8-6.4,2.2-9.9
				c-0.6-3.5-2.5-6.5-5.5-8.6C176.3,343.9,173.7,343.1,171,343.1z M155.5,345.5L155.5,345.5L155.5,345.5z"/>
		</g>
		<g>
			<path class="st1" d="M98.8,352.1c-4.9,0-9.8-1.4-14.1-4.4c-5.4-3.8-9-9.4-10.1-15.9c-1.1-6.5,0.3-13,4.1-18.4l10.2-14.6
				c0,0,0,0,0,0c7.8-11.1,23.1-13.8,34.2-6c11.1,7.8,13.8,23.1,6,34.2l-10.2,14.6C114.2,348.4,106.5,352.1,98.8,352.1z M98.1,305.4
				l-10.2,14.6c-2,2.9-2.8,6.4-2.2,9.9c0.6,3.5,2.5,6.5,5.5,8.6c6,4.2,14.3,2.7,18.5-3.3l10.2-14.6c4.2-6,2.7-14.3-3.3-18.5
				C110.6,297.9,102.3,299.4,98.1,305.4L98.1,305.4z"/>
		</g>
		<g>
			<path class="st1" d="M67.8,330.4c-4.9,0-9.8-1.4-14.1-4.4c-5.4-3.8-9-9.4-10.1-15.8c-1.1-6.5,0.3-13,4.1-18.4
				c3.8-5.4,9.4-9,15.8-10.1c6.5-1.1,13,0.3,18.3,4.1c11.1,7.8,13.8,23.1,6,34.2C83.2,326.8,75.5,330.4,67.8,330.4z M67.8,292.6
				c-0.8,0-1.6,0.1-2.3,0.2c-3.5,0.6-6.5,2.6-8.6,5.5v0c-2,2.9-2.8,6.4-2.2,9.9c0.6,3.5,2.5,6.5,5.5,8.6c6,4.2,14.3,2.7,18.5-3.3
				c2-2.9,2.8-6.4,2.2-9.9c-0.6-3.5-2.6-6.5-5.5-8.6C73.2,293.4,70.5,292.6,67.8,292.6z M52.3,295L52.3,295L52.3,295z"/>
		</g>
		<g>
			<path class="st0" d="M177.8,168.5h-58.8c-3.1,0-5.6-2.5-5.6-5.6c0-3.1,2.5-5.6,5.6-5.6h58.8c3.1,0,5.6,2.5,5.6,5.6
				C183.4,166,180.9,168.5,177.8,168.5z"/>
		</g>
		<g>
			<path class="st1" d="M225.3,45.6c-2.2-2.2-5.8-2.2-8,0L192.9,70l-10.2-10.2c-2.2-2.2-5.8-2.2-8,0L160.5,74
				c-1.1,1.1-1.6,2.5-1.6,4c0,1.5,0.6,2.9,1.6,4l28.4,28.4c1.1,1.1,2.5,1.7,4,1.7c1.4,0,2.9-0.6,4-1.7l42.6-42.6
				c2.2-2.2,2.2-5.8,0-8L225.3,45.6z M192.9,98.4L172.5,78l6.2-6.2L188.9,82c2.2,2.2,5.8,2.2,8,0l24.4-24.4l6.2,6.2L192.9,98.4z"/>
			<path class="st0" d="M200.2,5.9c-39.6,0-71.8,32.2-71.8,71.8c0,39.6,32.2,71.8,71.8,71.8c39.6,0,71.8-32.2,71.8-71.8
				C272.1,38.2,239.8,5.9,200.2,5.9z M200.2,138.3c-33.4,0-60.5-27.2-60.5-60.6c0-33.4,27.2-60.6,60.5-60.6
				c33.4,0,60.6,27.2,60.6,60.6C260.8,111.2,233.6,138.3,200.2,138.3z"/>
		</g>
		<g>
			<g>
				<g>
					<path class="st1" d="M135.8,249.5c-7.6,0-15-2.1-21.6-6.1c-2.6-1.6-3.5-5.1-1.9-7.7l37.4-62.5c5.9-9.8,16.6-15.9,28.1-15.9
						h103.7c3.1,0,5.6,2.5,5.6,5.6c0,3.1-2.5,5.6-5.6,5.6H177.8c-7.5,0-14.6,4-18.4,10.4l-34.3,57.2c5.7,2.2,12,2.6,18,1.1
						c7.9-1.9,14.6-6.9,18.7-13.8l15.3-25.6c1-1.7,2.9-2.7,4.8-2.7l18.2,0c1.5,0,2.9,0.6,4,1.7c1.1,1.1,1.7,2.5,1.7,4
						c0,17.7,14.4,32.2,32.2,32.2H257c3.1,0,5.6,2.5,5.6,5.6s-2.5,5.6-5.6,5.6H238c-22.1,0-40.3-16.5-43.1-37.8l-9.7,0l-13.7,22.9
						c-5.7,9.6-14.9,16.3-25.7,19C142.5,249.1,139.1,249.5,135.8,249.5z"/>
				</g>
			</g>
		</g>
		<g>
			<path class="st1" d="M352.7,287.5c-0.5,0-0.9-0.1-1.4-0.2c-1.5-0.4-2.7-1.3-3.5-2.6l-76.9-128.5c-1.6-2.7-0.7-6.1,1.9-7.7
				l36.7-22c1.3-0.8,2.8-1,4.3-0.6c1.5,0.4,2.7,1.3,3.5,2.6L394.2,257c1.6,2.7,0.7,6.1-1.9,7.7l-36.7,22
				C354.7,287.3,353.7,287.5,352.7,287.5z M283.5,155.4l71.1,118.8l27-16.2l-71.1-118.8L283.5,155.4z"/>
		</g>
		<g>
			<path class="st1" d="M351.5,256.3c-1.9,0-3.8-1-4.9-2.7c-1.6-2.7-0.7-6.1,1.9-7.7l9.9-5.9c2.7-1.6,6.1-0.7,7.7,1.9
				c1.6,2.7,0.7,6.1-1.9,7.7l-9.9,5.9C353.5,256.1,352.5,256.3,351.5,256.3z"/>
		</g>
		<g>
			<path class="st0" d="M47.7,287.5c-1,0-2-0.3-2.9-0.8l-36.7-22c-2.7-1.6-3.5-5.1-1.9-7.7l76.9-128.5c0.8-1.3,2-2.2,3.5-2.6
				c1.4-0.4,3-0.1,4.3,0.6l36.7,22c2.7,1.6,3.5,5.1,1.9,7.7L52.6,284.8c-0.8,1.3-2,2.2-3.5,2.6C48.7,287.5,48.2,287.5,47.7,287.5z
				 M18.8,258l27,16.2l71.1-118.8l-27-16.2L18.8,258z"/>
		</g>
		<g>
			<path class="st0" d="M48.8,256.3c-1,0-2-0.3-2.9-0.8l-9.9-5.9c-2.7-1.6-3.5-5.1-1.9-7.7c1.6-2.7,5-3.6,7.7-1.9l9.9,5.9
				c2.7,1.6,3.5,5.1,1.9,7.7C52.6,255.4,50.8,256.3,48.8,256.3z"/>
		</g>
	</g>
</g>
</svg>
