<?xml version="1.0" encoding="utf-8"?>
<!-- Generator: Adobe Illustrator 22.0.0, SVG Export Plug-In . SVG Version: 6.00 Build 0)  -->
<svg version="1.1" id="Capa_1" xmlns="http://www.w3.org/2000/svg" xmlns:xlink="http://www.w3.org/1999/xlink" x="0px" y="0px"
	 viewBox="0 0 291.6 103.2" style="enable-background:new 0 0 291.6 103.2;" xml:space="preserve">
<style type="text/css">
	.st0{fill:#434244;}
	.st1{fill:#5875E1;}
</style>
<g>
	<g>
		<path class="st0" d="M120.5,43c3.8,0.3,5.1,2.7,5.1,6.8c0,5.3-2.3,6.7-8.1,6.7c-4.4,0-6.5,0-9.4-0.3V30.7c2.6-0.3,4.5-0.3,8.3-0.3
			c6.2,0,8.5,1.4,8.5,6.7c0,3.7-1.3,5.5-4.3,5.8V43z M111.3,33.1v8.6h5.5c3.7,0,5-0.9,5-4.3c0-3.5-1.4-4.3-5.5-4.3
			C114.3,33.1,112.6,33.1,111.3,33.1z M122.4,49.3c0-4-1.4-5-5.6-5.1h-5.5v9.5c1.5,0,3.5,0,5.7,0C121,53.7,122.4,52.9,122.4,49.3z"
			/>
		<path class="st0" d="M131.8,56.2V30.7h3.3v25.5H131.8z"/>
		<path class="st0" d="M151.3,33.5v22.6h-3.3V33.5h-8.2v-2.9h19.7v2.9H151.3z"/>
		<path class="st0" d="M170,33.4c-1.7,0-2.5,0.7-2.5,2.4v5.9h10.7v2.6h-10.7v11.8h-3.3v-21c0-2.9,1.9-4.6,4.9-4.6
			c3.6,0,7.3,0,10.6,0.3l-0.2,2.5H170z"/>
		<path class="st0" d="M203.4,46.4c0,7.4-2.4,10.2-9.1,10.2c-6.9,0-9.4-2.8-9.4-10.2V30.7h3.3v15.8c0,5.5,1.6,7.3,6,7.3
			c4.4,0,6-1.8,6-7.3V30.7h3.3V46.4z"/>
		<path class="st0" d="M225.1,31l-0.2,2.4c-2.1-0.1-4.8-0.2-7.2-0.2c-3.7,0-5.1,0.1-5.1,3.9c0,2.8,1,3.6,3.2,4.2l5.2,1.3
			c3.9,1,5.1,3.2,5.1,7.2c0,5.9-2.6,7-8.5,7c-1.7,0-4.4-0.1-7.9-0.7l0.2-2.4c4.3,0.1,5.7,0.2,7.8,0.2c3.9,0,5.1-0.6,5.1-4.1
			c0-3-1-3.7-3.2-4.2l-5.3-1.3c-3.7-0.9-5-3.2-5-7.1c0-6,2.6-6.7,8.3-6.7C219.9,30.3,222.5,30.4,225.1,31z"/>
		<path class="st0" d="M231.9,56.2V30.7h3.3v25.5H231.9z"/>
		<path class="st0" d="M261.5,43.4c0,10-2.6,13.2-10.1,13.2c-7.4,0-10.1-3.3-10.1-13.2c0-10,2.7-13.2,10.1-13.2
			C258.9,30.2,261.5,33.4,261.5,43.4z M244.8,43.4c0,7.8,1.6,10.3,6.7,10.3c5,0,6.7-2.5,6.7-10.3s-1.6-10.3-6.7-10.3
			C246.4,33.1,244.8,35.6,244.8,43.4z"/>
		<path class="st0" d="M287.4,54.9c0,0.9-0.4,1.3-1.3,1.3H283c-0.7,0-1.1-0.3-1.4-1l-8.6-18.1c-0.4-1-1.1-2.3-1.4-3.4h-0.6
			c0.1,1.1,0.1,2.3,0.1,3.4v19.1h-3.3V32c0-0.9,0.4-1.3,1.3-1.3h3.1c0.7,0,1.1,0.3,1.4,1l8.4,17.6c0.5,1,1.2,2.4,1.7,3.7h0.6
			c-0.1-1.3-0.1-2.6-0.1-3.9V30.7h3.2V54.9z"/>
		<path class="st0" d="M129.9,76.7c-1.2,0.1-2.5,0.1-3.7,0.1c-0.9,0-1.5-0.6-1.5-1.4v-5.8c0-0.9,0.6-1.4,1.5-1.4
			c1.2,0,2.5,0,3.7,0.1l0,0.6h-3.5c-0.5,0-0.8,0.3-0.8,0.9v2.1h3.8v0.7h-3.8v2.7c0,0.6,0.3,0.9,0.8,0.9h3.5L129.9,76.7z"/>
		<path class="st0" d="M146.6,72.6l-2.3,4.2h-0.9l2.5-4.5l-2.4-4.1h0.9l2.2,3.8h0.4l2.1-3.8h0.9l-2.4,4.1l2.5,4.5h-0.9l-2.3-4.2
			H146.6z"/>
		<path class="st0" d="M169.3,68.2l-0.1,0.6c-0.7-0.1-1.2-0.1-2.2-0.1c-1.8,0-2.4,0.9-2.4,3.7c0,2.8,0.6,3.7,2.4,3.7
			c1,0,1.7,0,2.4-0.1l0.1,0.6c-0.7,0.2-1.4,0.3-2.5,0.3c-2.4,0-3.3-1.2-3.3-4.5c0-3.3,0.9-4.5,3.3-4.5C168,68,168.6,68,169.3,68.2z"
			/>
		<path class="st0" d="M189.6,76.7h-0.8v-4.3h-4.3v4.3h-0.8v-8.6h0.8v3.7h4.3v-3.7h0.8V76.7z"/>
		<path class="st0" d="M205.2,73.9l-0.9,2.8h-0.8l2.9-8.4c0.1-0.2,0.2-0.2,0.3-0.2h0.9c0.1,0,0.3,0.1,0.3,0.2l2.9,8.4h-0.8l-0.9-2.8
			H205.2z M207.5,69.5c-0.1-0.2-0.2-0.5-0.2-0.7h-0.3c-0.1,0.2-0.1,0.5-0.2,0.7l-1.2,3.7h3.3L207.5,69.5z"/>
		<path class="st0" d="M231,76.4c0,0.2-0.1,0.3-0.3,0.3h-0.9c-0.2,0-0.3-0.1-0.4-0.3l-3.3-6.5c-0.2-0.3-0.4-0.7-0.5-1h-0.2
			c0,0.3,0,0.7,0,1v6.8h-0.8v-8.3c0-0.2,0.1-0.3,0.3-0.3h0.8c0.2,0,0.3,0.1,0.4,0.3l3.2,6.4l0.6,1.2h0.3c0-0.4,0-0.8,0-1.2v-6.6h0.8
			V76.4z"/>
		<path class="st0" d="M251.5,76.7H251l-0.1-1c-0.6,0.6-1.5,1.1-2.6,1.1c-2,0-2.8-1.4-2.8-4.5c0-3.4,0.9-4.4,3.5-4.4
			c1,0,1.7,0.1,2.4,0.2l-0.1,0.6c-0.8-0.1-1.5-0.1-2.3-0.1c-2,0-2.6,0.7-2.6,3.8c0,2.7,0.6,3.7,2.1,3.7c1,0,1.7-0.5,2.3-1v-3.4h0.8
			V76.7z"/>
		<path class="st0" d="M271.2,76.7c-1.2,0.1-2.5,0.1-3.7,0.1c-0.9,0-1.5-0.6-1.5-1.4v-5.8c0-0.9,0.6-1.4,1.5-1.4
			c1.2,0,2.5,0,3.7,0.1l-0.1,0.6h-3.5c-0.5,0-0.8,0.3-0.8,0.9v2.1h3.8v0.7h-3.8v2.7c0,0.6,0.3,0.9,0.8,0.9h3.5L271.2,76.7z"/>
	</g>
	<g>
		<path class="st1" d="M70.4,94.6c-0.2,0-0.4,0-0.7,0.1l-5.9-5.8c-0.2,0.1-0.3,0.1-0.5,0.2l0-0.1c-4.4,1.6-8.9,2.4-13.6,2.4
			c-21.6,0-39.2-17.6-39.2-39.2c0-4.5,0.7-8.8,2.2-13l-0.1,0c0.1-0.3,0.2-0.6,0.3-0.9l-7.5-7.4c0.1-0.2,0.1-0.4,0.1-0.6
			c0-1.3-1-2.3-2.3-2.3c-1.3,0-2.3,1-2.3,2.3c0,1.3,1,2.3,2.3,2.3c0.2,0,0.4,0,0.7-0.1l6.5,6.5c-1.5,4.3-2.2,8.8-2.2,13.4
			c0,11.1,4.3,21.5,12.1,29.3c7.8,7.8,18.2,12.1,29.3,12.1c4.6,0,9.2-0.8,13.5-2.3l5,4.9c-0.1,0.2-0.1,0.4-0.1,0.6
			c0,1.3,1,2.3,2.3,2.3c1.3,0,2.3-1,2.3-2.3C72.7,95.6,71.6,94.6,70.4,94.6z"/>
		<path class="st1" d="M85.2,92.3c-0.2,0-0.4,0-0.7,0.1l-9.9-9.9L71.1,79c-0.6,0.5-1.2,0.9-1.8,1.3l0,0c-5.8,4-12.5,6.2-19.6,6.2
			c-18.9,0-34.3-15.4-34.3-34.3c0-7.1,2.1-13.8,6.1-19.5l0,0c0.4-0.6,0.9-1.2,1.3-1.8l-3.5-3.5L18,26c0.1-0.2,0.1-0.5,0.1-0.7
			c0-1.3-1-2.3-2.3-2.3c-1.3,0-2.3,1-2.3,2.3c0,1.3,1,2.3,2.3,2.3c0.2,0,0.4,0,0.6-0.1l1.6,1.6l2,2c-4.4,6.2-6.7,13.4-6.7,21.1
			c0,9.7,3.8,18.9,10.7,25.8c6.9,6.9,16,10.7,25.8,10.7c7.7,0,15-2.3,21.2-6.8l2,2L83,93.9c-0.1,0.2-0.1,0.4-0.1,0.6
			c0,1.3,1,2.3,2.3,2.3c1.3,0,2.3-1,2.3-2.3S86.5,92.3,85.2,92.3z"/>
		<path class="st1" d="M94.1,78.6c-0.2,0-0.4,0-0.7,0.1l-7.2-7.1c3.2-5.9,4.8-12.6,4.8-19.4c0-11.1-4.3-21.5-12.1-29.3
			C71.2,15,60.8,10.7,49.7,10.7c-6.8,0-13.6,1.7-19.6,4.9L27,12.5c0.1-0.2,0.1-0.4,0.1-0.6c0-1.3-1-2.3-2.3-2.3
			c-1.3,0-2.3,1-2.3,2.3s1,2.3,2.3,2.3c0.2,0,0.4,0,0.7-0.1l4.3,4.3c0.4-0.2,0.7-0.4,1.1-0.6l0,0c5.7-3.1,12.2-4.8,18.8-4.8
			C71.4,12.9,89,30.5,89,52.1c0,6.6-1.7,13.1-4.8,18.8l0.1,0c-0.2,0.3-0.4,0.7-0.6,1l8.3,8.3c-0.1,0.2-0.1,0.4-0.1,0.6
			c0,1.3,1,2.3,2.3,2.3c1.3,0,2.3-1,2.3-2.3C96.4,79.6,95.4,78.6,94.1,78.6z"/>
		<path class="st1" d="M9.4,12.5c0.2,0,0.4,0,0.7-0.1l12,11.9l3.5,3.5c0.5-0.5,1-1,1.6-1.5l0,0c6.3-5.5,14.3-8.5,22.6-8.5
			C68.6,17.8,84,33.2,84,52.1c0,8.3-3,16.3-8.5,22.6c-0.5,0.5-0.9,1-1.4,1.5l3.5,3.5l3.1,3.1c-0.1,0.2-0.1,0.4-0.1,0.6
			c0,1.3,1,2.3,2.3,2.3c1.3,0,2.3-1,2.3-2.3c0-1.3-1-2.3-2.3-2.3c-0.2,0-0.4,0-0.7,0.1l-3.1-3.1l-2-2c5.8-6.7,9-15.2,9-24
			c0-9.7-3.8-18.9-10.7-25.8c-6.9-6.9-16-10.7-25.8-10.7c-8.9,0-17.5,3.2-24.1,9.1l-2-2l-12-12c0.1-0.2,0.1-0.4,0.1-0.6
			c0-1.3-1-2.3-2.3-2.3c-1.3,0-2.3,1-2.3,2.3S8.2,12.5,9.4,12.5z"/>
		<path class="st1" d="M49.7,20.2c-17.7,0-32,14.3-32,32s14.3,32,32,32c17.7,0,32-14.3,32-32S67.4,20.2,49.7,20.2z M61.5,63.8
			c-0.9,1.5-2,2.6-3.5,3.5c-1.5,0.9-3.1,1.3-4.9,1.3h-7.8c-0.2,0-0.3-0.1-0.3-0.3v-4.8c0-0.2,0.1-0.3,0.3-0.3h7.8
			c1.1,0,2.1-0.4,2.8-1.2c0.8-0.8,1.2-1.8,1.2-2.9c0-1.1-0.4-2.1-1.2-2.8c-0.8-0.8-1.7-1.2-2.8-1.2h-5.9c-0.3,0-0.5-0.2-0.5-0.5
			v-4.9c0-0.1,0-0.1,0.1-0.2c0.1-0.1,0.1-0.1,0.2-0.1h2.6c1.1,0,2-0.4,2.7-1.2c0.8-0.8,1.2-1.7,1.2-2.8c0-1.1-0.4-2-1.2-2.8
			c-0.8-0.8-1.7-1.2-2.8-1.2h-3.4c-0.4,0-0.8,0.2-1.2,0.5c-0.3,0.3-0.5,0.7-0.5,1.1v15.9c0,0.1,0,0.2-0.1,0.2
			c-0.1,0.1-0.1,0.1-0.2,0.1h-4.1c-0.3,0-0.4-0.1-0.4-0.3V36c0-0.2,0.1-0.3,0.4-0.3h9.4c1.8,0,3.4,0.4,4.8,1.3
			c1.5,0.9,2.6,2,3.5,3.5c0.9,1.5,1.3,3.1,1.3,4.8c0,1.8-0.5,3.5-1.5,5.1c1.6,0.9,2.8,2.1,3.7,3.6c0.9,1.5,1.4,3.2,1.4,4.9
			C62.8,60.7,62.4,62.3,61.5,63.8z"/>
	</g>
</g>
</svg>
