<?xml version="1.0" encoding="utf-8"?>
<!-- Generator: Adobe Illustrator 22.0.0, SVG Export Plug-In . SVG Version: 6.00 Build 0)  -->
<svg version="1.1" id="Capa_1" xmlns="http://www.w3.org/2000/svg" xmlns:xlink="http://www.w3.org/1999/xlink" x="0px" y="0px"
	 viewBox="0 0 880 880" style="enable-background:new 0 0 880 880;" xml:space="preserve">
<style type="text/css">
	.st0{fill:#363636;}
</style>
<g>
	<g>
		<path class="st0" d="M639.4,815.7c-2.1,0-4.1,0.3-6,0.9l-53.3-53.1c-1.5,0.6-3,1.1-4.5,1.7l-0.3-0.8
			c-39.6,14.7-81.3,22.1-123.9,22.1c-196.9,0-357.2-160.2-357.2-357.2c0-40.6,6.8-80.5,20.1-118.5l-0.5-0.2c1-2.9,2.1-5.7,3.1-8.6
			l-67.9-67.7c0.6-1.9,0.9-3.8,0.9-5.9c0-11.5-9.3-20.8-20.8-20.8c-11.5,0-20.8,9.3-20.8,20.8c0,11.5,9.3,20.8,20.8,20.8
			c2.1,0,4.1-0.3,6-0.9l59.4,59.2c-13.3,39.1-20.1,80-20.1,121.7c0,100.7,39.2,195.3,110.4,266.5C256,767,350.7,806.2,451.4,806.2
			c42.2,0,83.5-6.9,123-20.5l45.1,44.9c-0.6,1.9-0.9,3.8-0.9,5.9c0,11.5,9.3,20.8,20.8,20.8c11.5,0,20.8-9.3,20.8-20.8
			S650.8,815.7,639.4,815.7z"/>
		<path class="st0" d="M774.5,794.9c-2.1,0-4.1,0.3-6,0.9L678.4,706l-32.5-32.4c-5.2,4.2-10.5,8.1-16,12l0,0
			c-52.5,36.7-114,56-178.5,56c-172.2,0-312.3-140.1-312.3-312.3c0-64.2,19.1-125.3,55.4-177.6l0,0c3.8-5.5,7.8-10.8,11.9-16.1
			l-32.2-32.1l-11.9-11.8c0.7-2.1,1.2-4.4,1.2-6.8c0-11.5-9.3-20.8-20.8-20.8c-11.5,0-20.8,9.3-20.8,20.8c0,11.5,9.3,20.8,20.8,20.8
			c1.7,0,3.4-0.2,5-0.6l14.3,14.3l18.3,18.2c-39.9,56.2-60.9,122.3-60.9,191.7c0,88.7,34.5,172.1,97.3,234.8
			c62.7,62.7,146.1,97.3,234.8,97.3c69.8,0,136.3-21.3,192.7-61.6l18.6,18.5l91.9,91.6c-0.6,1.9-0.9,3.8-0.9,5.9
			c0,11.5,9.3,20.8,20.8,20.8c11.5,0,20.8-9.3,20.8-20.8S786,794.9,774.5,794.9z"/>
		<path class="st0" d="M855.6,670.3c-2.1,0-4.1,0.3-6,0.9l-65.3-65c28.8-54.1,44-115.1,44-176.8c0-100.7-39.2-195.3-110.4-266.5
			C646.7,91.6,552.1,52.4,451.4,52.4c-62.1,0-123.6,15.5-178,44.7l-29-28.9c0.6-1.9,0.9-3.8,0.9-5.9c0-11.5-9.3-20.8-20.8-20.8
			s-20.8,9.3-20.8,20.8S213,83,224.4,83c2.1,0,4.1-0.3,6-0.9l39.4,39.3c3.4-2,6.8-3.9,10.2-5.8l0.1,0.1
			c52.2-28.6,111.4-43.6,171.2-43.6c196.9,0,357.2,160.2,357.2,357.2c0,59.9-15.1,119.1-43.6,171.2l0.5,0.3
			c-1.7,3.1-3.4,6.2-5.2,9.2l75.4,75.2c-0.6,1.9-0.9,3.8-0.9,5.9c0,11.5,9.3,20.8,20.8,20.8c11.5,0,20.8-9.3,20.8-20.8
			C876.3,679.6,867,670.3,855.6,670.3z"/>
		<path class="st0" d="M84.3,68.4c2.1,0,4.1-0.3,6-0.9L199.2,176l32,31.9c4.7-4.7,9.5-9.1,14.5-13.5l0,0
			c57-49.9,129.8-77.4,205.7-77.4c172.2,0,312.3,140.1,312.3,312.3c0,75.9-27.3,148.5-77,205.4c-4.2,4.8-8.5,9.5-13,14l32.3,32.2
			l27.9,27.8c-0.6,1.9-0.9,3.8-0.9,5.9c0,11.5,9.3,20.8,20.8,20.8c11.5,0,20.8-9.3,20.8-20.8c0-11.5-9.3-20.8-20.8-20.8
			c-2.1,0-4.1,0.3-6,0.9l-28.4-28.3l-18.3-18.2c53.2-60.6,82.4-137.9,82.4-218.9c0-88.7-34.5-172.1-97.3-234.8
			c-62.7-62.7-146.1-97.3-234.8-97.3c-81.2,0-159.1,29.5-219.8,83.2l-18-17.9L104.3,53.5c0.6-1.9,0.9-3.8,0.9-5.9
			c0-11.5-9.3-20.8-20.8-20.8c-11.5,0-20.8,9.3-20.8,20.8S72.9,68.4,84.3,68.4z"/>
		<path class="st0" d="M451.4,138.3c-160.7,0-291,130.3-291,291s130.3,291,291,291c160.7,0,291-130.3,291-291
			S612.1,138.3,451.4,138.3z M558.8,535.4c-7.8,13.4-18.5,24-32.1,31.9c-13.5,7.8-28.3,11.8-44.3,11.8h-70.6c-2,0-3-1-3-3V532
			c0-2,1-3,3-3h70.6c10.3,0,18.9-3.7,25.9-11.1c7-7.4,10.5-16.3,10.5-26.5c0-10.3-3.6-18.9-10.7-25.9c-7.1-7-15.7-10.5-25.7-10.5
			h-53.9c-2.9,0-4.3-1.4-4.3-4.3v-44.5c0-0.6,0.3-1.2,0.9-1.9c0.6-0.7,1.3-1.1,2.1-1.1h24c9.7,0,18-3.6,25-10.7
			c7-7.1,10.5-15.5,10.5-25.2c0-10-3.6-18.5-10.7-25.7c-7.1-7.1-15.7-10.7-25.7-10.7h-30.8c-4,0-7.5,1.4-10.5,4.3
			c-3,2.9-4.5,6.3-4.5,10.3v145.1c0,0.9-0.4,1.6-1.1,2.1c-0.7,0.6-1.4,0.9-1.9,0.9h-37.2c-2.3,0-3.4-1-3.4-3v-208c0-2,1.1-3,3.4-3
			h86c16,0,30.6,3.9,44.1,11.8c13.4,7.8,24,18.5,31.9,31.9c7.8,13.4,11.8,28.1,11.8,44.1c0,16.5-4.6,32.1-13.7,46.6
			c14.3,8,25.5,18.9,33.8,32.7c8.3,13.8,12.4,28.7,12.4,44.7C570.6,507.3,566.7,522,558.8,535.4z"/>
	</g>
</g>
</svg>
