<?xml version="1.0" encoding="utf-8"?>
<!-- Generator: Adobe Illustrator 22.0.0, SVG Export Plug-In . SVG Version: 6.00 Build 0)  -->
<svg version="1.1" id="Capa_1" xmlns="http://www.w3.org/2000/svg" xmlns:xlink="http://www.w3.org/1999/xlink" x="0px" y="0px"
	 viewBox="0 0 400 400" style="enable-background:new 0 0 400 400;" xml:space="preserve">
<style type="text/css">
	.st0{fill:#5875E1;}
	.st1{fill:#999999;}
</style>
<g>
	<g>
		<path class="st0" d="M292.2,247.7c21.8-25.7,34.2-58.5,34.2-93c0-35.4-12.9-67.7-34.2-92.8c0-0.1,0-0.1-0.1-0.2
			c-0.4-0.7-1-1.2-1.6-1.6c-26.3-30-64.9-49-107.8-49c-43,0-81.5,19-107.8,49c-0.6,0.4-1.2,1-1.6,1.6c0,0.1,0,0.1-0.1,0.2
			C52,86.9,39.1,119.3,39.1,154.7c0,50.1,25.5,95.8,68.1,122.2c0.9,0.6,1.9,0.8,2.9,0.8c1.8,0,3.6-0.9,4.7-2.6
			c1.6-2.6,0.8-6-1.8-7.6c-9.8-6.1-18.6-13.2-26.3-21.3c8.9-4.9,19-9,29.9-12.3c5.3,14.7,12.1,27.7,20.1,38.1
			c1.1,1.4,2.7,2.1,4.3,2.1c1.2,0,2.4-0.4,3.4-1.2c2.4-1.9,2.8-5.3,1-7.7c-7.2-9.3-13.4-21-18.3-34.2c17.2-4.2,36.1-6.4,55.6-6.4
			c19.4,0,38.3,2.2,55.5,6.4c-3.6,9.7-7.8,18.8-12.7,26.5c-1.6,2.6-0.9,6,1.7,7.6c2.6,1.6,6,0.9,7.6-1.7
			c5.5-8.7,10.1-18.7,14.1-29.5c10.9,3.3,21,7.4,29.9,12.3c-6.2,6.5-13,12.5-20.6,17.7c-2.5,1.7-3.1,5.2-1.4,7.6
			c1.7,2.5,5.2,3.1,7.6,1.4C274.9,265.7,284.1,257.2,292.2,247.7C292.2,247.7,292.2,247.7,292.2,247.7
			C292.2,247.7,292.2,247.7,292.2,247.7z M261.8,149.2c-0.5-23-3.7-44.6-9.2-63.4c12.3-3.7,23.6-8.5,33.5-14.1
			c17.2,21.4,27.9,48.3,29.1,77.5H261.8z M50.4,149.2c1.2-29.3,11.8-56.1,29.1-77.5c9.9,5.6,21.2,10.4,33.5,14.1
			c-5.6,18.8-8.8,40.4-9.2,63.4H50.4z M123.7,88.8c18.4,4.5,38.5,6.9,59.1,6.9c20.6,0,40.7-2.4,59.1-6.9c5.3,17.9,8.5,38.5,8.9,60.4
			H114.7C115.2,127.2,118.4,106.7,123.7,88.8z M182.8,22c23,0,43.3,22.3,55.7,56.3c-17.3,4.2-36.2,6.4-55.7,6.4
			c-19.5,0-38.4-2.2-55.7-6.4C139.5,44.3,159.8,22,182.8,22z M278.6,63.2c-8.8,4.8-18.7,8.9-29.5,12.1
			c-7.3-20.2-17.2-36.7-29.1-47.9C242.7,34.1,262.8,46.6,278.6,63.2z M145.5,27.4c-11.9,11.2-21.8,27.7-29.1,47.9
			c-10.8-3.3-20.7-7.3-29.5-12.1C102.8,46.6,122.9,34.1,145.5,27.4z M79.3,237.8c-17.6-21.8-27.9-48.8-29-77.6h53.5
			c0.5,22.5,3.8,44.1,9.5,63.3C100.8,227.3,89.3,232.1,79.3,237.8z M182.8,213.7c-20.6,0-40.6,2.4-59,6.9
			c-5.5-18.2-8.6-38.9-9.1-60.4h136c-0.5,21.5-3.6,42.1-9.1,60.4C223.4,216.1,203.4,213.7,182.8,213.7z M252.3,223.5
			c5.7-19.3,9-40.9,9.5-63.3h53.5c-1.2,28.6-11.5,55.7-29.1,77.6C276.2,232.1,264.8,227.3,252.3,223.5z"/>
		<path class="st1" d="M330.2,361H132.3c-10.2,0-19.7-4-26.9-11.2l-77.9-77.9c-6.6-6.6-6.6-17.3,0-23.9c6.4-6.4,17.5-6.4,23.9,0
			L96,292.8c1.7,12.7,12.5,22.6,25.8,22.6h79.5c3,0,5.5-2.5,5.5-5.5c0-3-2.5-5.5-5.5-5.5h-79.5c-8.3,0-15.1-6.8-15.1-15.1
			c0-8.3,6.8-15.1,15.1-15.1l57.8-0.1c0.6,0,1.3-0.1,1.8-0.3c12.2-4.4,24.5-7,36.5-7.8c25.7-1.8,51.9,8.6,71.8,28.5l2.3,2.3
			c1,1,2.4,1.6,3.9,1.6h34.4c3,0,5.5-2.5,5.5-5.5c0-3-2.5-5.5-5.5-5.5h-32.1l-0.7-0.7c-22.1-22.1-51.4-33.6-80.3-31.7
			c-12.7,0.9-25.6,3.6-38.5,8.1l-56.9,0.1c-10.7,0-20,6.5-24,15.8L59,240.3c-10.9-10.9-28.5-10.9-39.4,0
			c-10.9,10.9-10.9,28.5,0,39.4l77.9,77.9c9.3,9.3,21.6,14.4,34.7,14.4h197.9c3,0,5.5-2.5,5.5-5.5S333.2,361,330.2,361z"/>
		<g>
			<path class="st0" d="M376.6,390.5H339c-7.9,0-14.3-6.4-14.3-14.3v-92.9c0-7.9,6.4-14.3,14.3-14.3h37.7c7.9,0,14.3,6.4,14.3,14.3
				v92.9C390.9,384,384.5,390.5,376.6,390.5z M339,279.9c-1.8,0-3.3,1.5-3.3,3.3v92.9c0,1.8,1.5,3.3,3.3,3.3h37.7
				c1.8,0,3.3-1.5,3.3-3.3v-92.9c0-1.8-1.5-3.3-3.3-3.3H339z"/>
		</g>
		<g>
			<path class="st0" d="M367,372h-18.4c-3,0-5.5-2.5-5.5-5.5s2.5-5.5,5.5-5.5H367c3,0,5.5,2.5,5.5,5.5S370,372,367,372z"/>
		</g>
	</g>
</g>
</svg>
