<?xml version="1.0" encoding="utf-8"?>
<!-- Generator: Adobe Illustrator 22.0.0, SVG Export Plug-In . SVG Version: 6.00 Build 0)  -->
<svg version="1.1" id="Capa_1" xmlns="http://www.w3.org/2000/svg" xmlns:xlink="http://www.w3.org/1999/xlink" x="0px" y="0px"
	 viewBox="0 0 100 100" style="enable-background:new 0 0 100 100;" xml:space="preserve">
<style type="text/css">
	.st0{fill:#8055E3;}
	.st1{fill:#FFFFFF;}
</style>
<g>
	<g>
		<g>
			<path class="st0" d="M11.5,47c0-10.8,0-21.5,0-32.3c0-1.9,0-3.8,0-5.8c0-3.6,2.7-6.3,6.3-6.3c13.7,0,27.5,0,41.2,0
				c1.2,0,2,0.3,2.8,1.2c6.4,6.4,12.8,12.8,19.2,19.2c1.9,1.9,3.7,3.7,5.6,5.6c0.3,0.3,0.5,0.7,0.5,1.2c0,5,0,10.1,0,15.1
				c0,6,0,12,0,18c0,5.4,0,10.7,0,16.1c0,2.1,0,4.2,0,6.2c0,3.5-2.7,6.2-6.2,6.2c-7.5,0-15,0-22.5,0c-11.5,0-23,0-34.5,0
				c-2,0-4,0-6,0c-3.7,0-6.4-2.7-6.4-6.3c0-11.2,0-22.4,0-33.6C11.5,49.9,11.5,48.5,11.5,47C11.5,47,11.5,47,11.5,47z M58.8,5.1
				c-0.2,0-0.4,0-0.6,0c-5.9,0-11.8,0-17.7,0c-7.6,0-15.2,0-22.8,0c-2.2,0-3.8,1.6-3.8,3.8c0,1.3,0,2.7,0,4c0,14.4,0,28.8,0,43.2
				c0,9.7,0,19.3,0,29c0,2.2,1.6,3.8,3.8,3.8c1.2,0,2.4,0,3.6,0c11.7,0,23.4,0,35.1,0c8.1,0,16.2,0,24.2,0c2.2,0,3.8-1.6,3.8-3.8
				c0-1.2,0-2.4,0-3.7c0-16.7,0-33.3,0-50c0-0.2,0-0.4,0-0.6c-0.1,0-0.2,0-0.2,0c-5,0-10,0-15,0c-1.9,0-3.8,0-5.7,0
				c-0.6,0-1.2,0-1.8-0.1c-1.8-0.4-2.9-1.9-2.9-3.8c0-7,0-13.9,0-20.9C58.8,5.7,58.8,5.4,58.8,5.1z M61.3,7c0,0.1,0,0.3,0,0.5
				c0,6.3,0,12.6,0,18.9c0,0.2,0,0.5,0,0.7c0,0.8,0.5,1.3,1.3,1.3c0.5,0,1,0,1.5,0c2.9,0,5.8,0,8.8,0c3.1,0,6.2,0,9.3,0
				c0.2,0,0.3,0,0.4,0C75.5,21.2,68.4,14.1,61.3,7z"/>
			<g>
				<path class="st0" d="M58.3,50.9c5.6,0,11.2,0,16.7,0c0.7,0,1.2,0.3,1.4,0.9c0.2,0.8-0.3,1.6-1.1,1.6c-0.2,0-0.4,0-0.7,0
					c-5.7,0-11.4,0-17.1,0c-5.3,0-29.7,0-35,0c-0.6,0-1.1-0.1-1.4-0.7c-0.2-0.4-0.2-0.9,0.1-1.3c0.3-0.4,0.7-0.5,1.2-0.5
					c1.5,0,2.9,0,4.4,0C30.9,50.9,54.1,50.9,58.3,50.9z"/>
				<path class="st0" d="M58.3,60.4c3.1,0,6.2,0,9.3,0c2.5,0,5,0,7.5,0c1,0,1.5,0.7,1.3,1.6c-0.1,0.5-0.6,0.9-1.3,0.9
					c-1.9,0-3.8,0-5.8,0c-1.7,0-3.4,0-5.1,0c-7.5,0-34.1,0-41.7,0c-0.3,0-0.5,0-0.8-0.1c-0.6-0.2-0.9-0.7-0.8-1.3
					c0.1-0.6,0.5-1,1.1-1.1c0.2,0,0.4,0,0.6,0C28.2,60.4,52.8,60.4,58.3,60.4z"/>
				<path class="st0" d="M58.3,79.3c5.6,0,11.2,0,16.7,0c0.7,0,1.2,0.3,1.4,0.9c0.2,0.8-0.3,1.5-1.1,1.6c-0.2,0-0.3,0-0.5,0
					c-7.9,0-15.9,0-23.8,0c-3.1,0-25.4,0-28.5,0c-0.8,0-1.3-0.4-1.4-1.1c-0.1-0.8,0.4-1.4,1.3-1.4c2.2,0,23.5,0,25.7,0
					C51.4,79.3,54.8,79.3,58.3,79.3C58.3,79.3,58.3,79.3,58.3,79.3z"/>
				<path class="st0" d="M58.2,72.3c-2,0-4,0-6,0c-3.6,0-26.2,0-29.8,0c-0.9,0-1.5-0.6-1.4-1.4c0-0.6,0.5-1,1.1-1.1
					c0.1,0,0.3,0,0.4,0c11.1,0,41.3,0,52.5,0c1.2,0,1.6,0.9,1.4,1.6c-0.2,0.6-0.7,0.9-1.4,0.9c-2.5,0-5,0-7.5,0
					C64.4,72.3,61.3,72.3,58.2,72.3z"/>
				<path class="st0" d="M58.2,43.9c-5.4,0-30,0-35.4,0c-0.2,0-0.4,0-0.6,0c-0.8,0-1.3-0.5-1.2-1.3c0-0.7,0.5-1.2,1.3-1.2
					c1.2,0,2.4,0,3.6,0c2.9,0,24.9,0,27.9,0c7,0,14,0,21,0c0.2,0,0.4,0,0.7,0c0.6,0.1,1,0.6,1,1.2c0,0.6-0.5,1.1-1.1,1.2
					c-0.2,0-0.5,0-0.7,0C69.2,43.9,63.7,43.9,58.2,43.9z"/>
			</g>
			<g>
				<path class="st0" d="M34.7,22.5c5.6,0,11.2,0,16.7,0c0.7,0,1.2,0.3,1.4,0.9c0.2,0.8-0.3,1.6-1.1,1.6c-0.2,0-0.4,0-0.7,0
					c-5.7,0-11.4,0-17.1,0c-5.3,0-6.1,0-11.4,0c-0.6,0-1.1-0.1-1.4-0.7c-0.2-0.4-0.2-0.9,0.1-1.3c0.3-0.4,0.7-0.5,1.2-0.5
					c1.5,0,2.9,0,4.4,0C30.9,22.5,30.5,22.5,34.7,22.5z"/>
				<path class="st0" d="M34.7,31.9c3.1,0,6.2,0,9.3,0c2.5,0,5,0,7.5,0c1,0,1.5,0.7,1.3,1.6c-0.1,0.5-0.6,0.9-1.3,0.9
					c-1.9,0-3.8,0-5.8,0c-1.7,0-3.4,0-5.1,0c-7.5,0-10.6,0-18.1,0c-0.3,0-0.5,0-0.8-0.1c-0.6-0.2-0.9-0.7-0.8-1.3
					c0.1-0.6,0.5-1,1.1-1.1c0.2,0,0.4,0,0.6,0C28.2,31.9,29.2,31.9,34.7,31.9z"/>
				<path class="st0" d="M34.6,15.5c-5.4,0-6.4,0-11.8,0c-0.2,0-0.4,0-0.6,0c-0.8,0-1.3-0.5-1.2-1.3c0-0.7,0.5-1.2,1.3-1.2
					c1.2,0,2.4,0,3.6,0c2.9,0,1.4,0,4.3,0c7,0,14,0,21,0c0.2,0,0.4,0,0.7,0c0.6,0.1,1,0.6,1,1.2c0,0.6-0.5,1.1-1.1,1.2
					c-0.2,0-0.5,0-0.7,0C45.6,15.5,40.1,15.5,34.6,15.5z"/>
			</g>
		</g>
	</g>
	<rect x="2.5" y="65.5" class="st0" width="93.5" height="32.5"/>
	<g>
		<path class="st1" d="M56.4,81.7c0,1.6-0.3,3.1-1.1,4.5c-1.5,2.5-3.9,3.3-6.6,3.2c-2-0.1-3.7-0.8-5-2.3c-1-1.2-1.4-2.7-1.6-4.2
			c-0.2-1.8,0-3.5,0.8-5.1c1.1-2.3,3.1-3.3,5.5-3.5c2.6-0.2,4.9,0.4,6.6,2.6C56,78.3,56.3,80,56.4,81.7z M53.4,81.8
			c-0.2-0.8-0.2-1.6-0.5-2.4c-0.5-1.7-1.8-2.7-3.4-2.8c-1.9-0.1-3.3,0.7-3.9,2.2c-0.9,2-0.9,4,0,5.9c1.2,2.7,4.8,3.1,6.6,0.8
			C53.1,84.5,53.3,83.2,53.4,81.8z"/>
		<path class="st1" d="M64.1,89.3c-1.4,0-2.7-0.2-3.8-1c-1.1-0.7-1.8-1.7-1.9-3c-0.1-0.8,0.2-1.3,0.9-1.5c0.6-0.2,1.2,0.1,1.6,0.8
			c0.2,0.4,0.4,0.9,0.6,1.3c0.4,0.7,1,1.1,1.9,1.3c0.8,0.1,1.6,0.1,2.4-0.3c0.9-0.4,1.3-1.1,1.3-1.9c0-0.9-0.6-1.4-1.4-1.7
			c-1.2-0.4-2.4-0.7-3.6-1c-0.9-0.3-1.8-0.7-2.4-1.4c-1.6-1.8-1.2-4.6,0.9-5.7c2.3-1.3,4.8-1.3,7.1,0c1,0.5,1.6,1.4,1.8,2.5
			c0.1,0.8-0.4,1.5-1.2,1.6c-0.5,0.1-0.9-0.1-1.1-0.5c-0.3-0.4-0.5-0.8-0.8-1.2c-0.9-1.3-3.3-1.5-4.4-0.4c-0.7,0.7-0.7,1.7,0.1,2.1
			c0.8,0.4,1.8,0.7,2.6,1c1,0.3,2,0.6,3,1c3.2,1.3,2.8,5.6,0.5,7.2C66.9,89.1,65.6,89.3,64.1,89.3z"/>
		<path class="st1" d="M34.3,89.3c-1.8,0-3.4-0.3-4.7-1.7c-0.6-0.6-1-1.4-1.1-2.2c-0.1-0.8,0.2-1.4,0.9-1.6c0.7-0.2,1.2,0.1,1.6,0.8
			c0.2,0.4,0.4,0.8,0.5,1.2c0.4,0.8,1.1,1.2,2,1.4c0.9,0.1,1.7,0.1,2.5-0.4c0.7-0.4,1.1-0.9,1.1-1.7c0-0.8-0.4-1.4-1.1-1.6
			c-0.7-0.3-1.5-0.5-2.3-0.7c-0.9-0.3-1.8-0.5-2.6-0.8c-1.6-0.7-2.4-1.9-2.4-3.6c0-1.6,0.9-2.9,2.5-3.5c2.2-0.8,4.4-0.8,6.4,0.4
			c0.9,0.5,1.5,1.3,1.7,2.3c0.1,0.7-0.2,1.4-0.8,1.6c-0.6,0.3-1.2,0-1.6-0.6c-0.1-0.2-0.2-0.3-0.3-0.5c-0.9-1.6-2.8-2.1-4.3-1.2
			c-1.2,0.7-1.2,2,0,2.6c0.7,0.4,1.6,0.5,2.4,0.8c1,0.3,2,0.6,3,1c1.4,0.6,2.2,1.6,2.4,3.1c0.1,1.7-0.4,3.2-1.9,4.2
			C37,89.1,35.7,89.3,34.3,89.3z"/>
	</g>
</g>
</svg>
