<?xml version="1.0" encoding="utf-8"?>
<!-- Generator: Adobe Illustrator 22.0.0, SVG Export Plug-In . SVG Version: 6.00 Build 0)  -->
<svg version="1.1" id="Capa_1" xmlns="http://www.w3.org/2000/svg" xmlns:xlink="http://www.w3.org/1999/xlink" x="0px" y="0px"
	 viewBox="0 0 400 400" style="enable-background:new 0 0 400 400;" xml:space="preserve">
<style type="text/css">
	.st0{fill:#5875E1;}
	.st1{fill:#999999;}
</style>
<g>
	<g>
		<g>
			<path class="st0" d="M200.5,397.5c-1.1,0-2.2-0.3-3.2-1C79.7,318.3,41.7,277,41.7,86.1c0-2.2,1.2-4.1,3.2-5.1L197.7,4.6
				c1.6-0.8,3.5-0.8,5.1,0L355.6,81c1.9,1,3.2,2.9,3.2,5.1c0,190.7-37.9,232.1-155.1,310.4C202.7,397.1,201.6,397.5,200.5,397.5z
				 M53.1,89.6c0.5,186.2,38.6,222.7,147.4,295.3c108.3-72.6,146.4-109.2,146.8-295.3L200.2,16.1L53.1,89.6z"/>
		</g>
		<g>
			<path class="st1" d="M200.4,359.2c-1.1,0-2.2-0.3-3.2-1c-94.5-62.8-125-96-125-249.3c0-2.2,1.2-4.1,3.2-5.1l122.3-61.1
				c1.6-0.8,3.5-0.8,5.1,0L325,103.9c1.9,1,3.2,2.9,3.2,5.1c0,153.1-30.4,186.3-124.6,249.3C202.7,358.9,201.5,359.2,200.4,359.2z
				 M83.7,112.6c0.5,147.4,30.8,176.7,116.8,234.1c85.7-57.5,115.9-86.8,116.3-234.1L200.2,54.3L83.7,112.6z"/>
		</g>
		<path class="st0" d="M271.8,169.7l-27-27c-2.1-2.1-5.9-2.1-8.1,0l-50,50l-23-23c-2.1-2.1-5.9-2.1-8.1,0l-26.9,26.9
			c-2.2,2.2-2.2,5.8,0,8.1l54,54.1c0,0,0,0,0,0c1.1,1.1,2.6,1.7,4,1.7c1.5,0,2.9-0.6,4-1.7l81-81C274,175.5,274,171.9,271.8,169.7z
			 M186.7,246.7l-45.9-46l18.8-18.9l23.1,23.1c2.2,2.2,5.8,2.2,8.1,0c0.2-0.2,0.2-0.4,0.4-0.6l49.5-49.6l19,19L186.7,246.7z"/>
	</g>
</g>
</svg>
